G04 Layer: TopSilkscreenLayer*
G04 EasyEDA v6.5.44, 2024-09-12 07:38:51*
G04 Gerber Generator version 0.2*
G04 Scale: 100 percent, Rotated: No, Reflected: No *
G04 Dimensions in millimeters *
G04 leading zeros omitted , absolute positions ,4 integer and 5 decimal *
%FSLAX45Y45*%
%MOMM*%

%ADD10C,0.2032*%
%ADD11C,0.1524*%
%ADD12C,0.1500*%
%ADD13C,0.2540*%
%ADD14C,0.2030*%
%ADD15C,0.2000*%
%ADD16C,0.0159*%

%LPD*%
D10*
X4645913Y9412478D02*
G01*
X4572000Y9218676D01*
X4645913Y9412478D02*
G01*
X4719827Y9218676D01*
X4599686Y9283192D02*
G01*
X4692141Y9283192D01*
X4780788Y9412478D02*
G01*
X4780788Y9218676D01*
X4841747Y9412478D02*
G01*
X4841747Y9218676D01*
X4841747Y9412478D02*
G01*
X4971034Y9218676D01*
X4971034Y9412478D02*
G01*
X4971034Y9218676D01*
X5050536Y9412478D02*
G01*
X5152136Y9412478D01*
X5096509Y9338563D01*
X5124450Y9338563D01*
X5142738Y9329420D01*
X5152136Y9320276D01*
X5161279Y9292589D01*
X5161279Y9274047D01*
X5152136Y9246362D01*
X5133593Y9227820D01*
X5105908Y9218676D01*
X5078222Y9218676D01*
X5050536Y9227820D01*
X5041138Y9236963D01*
X5031993Y9255505D01*
X4645913Y8967978D02*
G01*
X4572000Y8774176D01*
X4645913Y8967978D02*
G01*
X4719827Y8774176D01*
X4599686Y8838692D02*
G01*
X4692141Y8838692D01*
X4780788Y8967978D02*
G01*
X4780788Y8774176D01*
X4841747Y8967978D02*
G01*
X4841747Y8774176D01*
X4841747Y8967978D02*
G01*
X4971034Y8774176D01*
X4971034Y8967978D02*
G01*
X4971034Y8774176D01*
X5041138Y8921750D02*
G01*
X5041138Y8931147D01*
X5050536Y8949689D01*
X5059679Y8958834D01*
X5078222Y8967978D01*
X5115052Y8967978D01*
X5133593Y8958834D01*
X5142738Y8949689D01*
X5152136Y8931147D01*
X5152136Y8912605D01*
X5142738Y8894063D01*
X5124450Y8866378D01*
X5031993Y8774176D01*
X5161279Y8774176D01*
X4645913Y8459978D02*
G01*
X4572000Y8266176D01*
X4645913Y8459978D02*
G01*
X4719827Y8266176D01*
X4599686Y8330692D02*
G01*
X4692141Y8330692D01*
X4780788Y8459978D02*
G01*
X4780788Y8266176D01*
X4841747Y8459978D02*
G01*
X4841747Y8266176D01*
X4841747Y8459978D02*
G01*
X4971034Y8266176D01*
X4971034Y8459978D02*
G01*
X4971034Y8266176D01*
X5031993Y8423147D02*
G01*
X5050536Y8432292D01*
X5078222Y8459978D01*
X5078222Y8266176D01*
X4620513Y7926578D02*
G01*
X4546600Y7732776D01*
X4620513Y7926578D02*
G01*
X4694427Y7732776D01*
X4574286Y7797292D02*
G01*
X4666741Y7797292D01*
X4755388Y7926578D02*
G01*
X4755388Y7732776D01*
X4816347Y7926578D02*
G01*
X4816347Y7732776D01*
X4816347Y7926578D02*
G01*
X4945634Y7732776D01*
X4945634Y7926578D02*
G01*
X4945634Y7732776D01*
X5061965Y7926578D02*
G01*
X5034279Y7917434D01*
X5015738Y7889747D01*
X5006593Y7843520D01*
X5006593Y7815834D01*
X5015738Y7769605D01*
X5034279Y7741920D01*
X5061965Y7732776D01*
X5080508Y7732776D01*
X5108193Y7741920D01*
X5126736Y7769605D01*
X5135879Y7815834D01*
X5135879Y7843520D01*
X5126736Y7889747D01*
X5108193Y7917434D01*
X5080508Y7926578D01*
X5061965Y7926578D01*
X3048254Y7516876D02*
G01*
X3039109Y7525765D01*
X3025393Y7530337D01*
X3007106Y7530337D01*
X2993643Y7525765D01*
X2984500Y7516876D01*
X2984500Y7507731D01*
X2989072Y7498587D01*
X2993643Y7494015D01*
X3002788Y7489444D01*
X3029965Y7480300D01*
X3039109Y7475981D01*
X3043681Y7471410D01*
X3048254Y7462265D01*
X3048254Y7448550D01*
X3039109Y7439405D01*
X3025393Y7434834D01*
X3007106Y7434834D01*
X2993643Y7439405D01*
X2984500Y7448550D01*
X3078225Y7530337D02*
G01*
X3078225Y7434834D01*
X3078225Y7530337D02*
G01*
X3109975Y7530337D01*
X3123691Y7525765D01*
X3132581Y7516876D01*
X3137154Y7507731D01*
X3141725Y7494015D01*
X3141725Y7471410D01*
X3137154Y7457694D01*
X3132581Y7448550D01*
X3123691Y7439405D01*
X3109975Y7434834D01*
X3078225Y7434834D01*
X3208020Y7530337D02*
G01*
X3171697Y7434834D01*
X3208020Y7530337D02*
G01*
X3244595Y7434834D01*
X3185413Y7466837D02*
G01*
X3230879Y7466837D01*
X93471Y9907778D02*
G01*
X65786Y9898634D01*
X47244Y9870947D01*
X38100Y9824720D01*
X38100Y9797034D01*
X47244Y9750805D01*
X65786Y9723120D01*
X93471Y9713976D01*
X112013Y9713976D01*
X139700Y9723120D01*
X158242Y9750805D01*
X167386Y9797034D01*
X167386Y9824720D01*
X158242Y9870947D01*
X139700Y9898634D01*
X112013Y9907778D01*
X93471Y9907778D01*
X228345Y9843262D02*
G01*
X329945Y9713976D01*
X329945Y9843262D02*
G01*
X228345Y9713976D01*
X483362Y9907778D02*
G01*
X390905Y9778492D01*
X529589Y9778492D01*
X483362Y9907778D02*
G01*
X483362Y9713976D01*
X636523Y9907778D02*
G01*
X608837Y9898634D01*
X599694Y9880092D01*
X599694Y9861550D01*
X608837Y9843262D01*
X627379Y9833863D01*
X664210Y9824720D01*
X692150Y9815576D01*
X710437Y9797034D01*
X719836Y9778492D01*
X719836Y9750805D01*
X710437Y9732263D01*
X701294Y9723120D01*
X673607Y9713976D01*
X636523Y9713976D01*
X608837Y9723120D01*
X599694Y9732263D01*
X590550Y9750805D01*
X590550Y9778492D01*
X599694Y9797034D01*
X618236Y9815576D01*
X645921Y9824720D01*
X682752Y9833863D01*
X701294Y9843262D01*
X710437Y9861550D01*
X710437Y9880092D01*
X701294Y9898634D01*
X673607Y9907778D01*
X636523Y9907778D01*
X93471Y9475978D02*
G01*
X65786Y9466834D01*
X47244Y9439147D01*
X38100Y9392920D01*
X38100Y9365234D01*
X47244Y9319005D01*
X65786Y9291320D01*
X93471Y9282176D01*
X112013Y9282176D01*
X139700Y9291320D01*
X158242Y9319005D01*
X167386Y9365234D01*
X167386Y9392920D01*
X158242Y9439147D01*
X139700Y9466834D01*
X112013Y9475978D01*
X93471Y9475978D01*
X228345Y9411462D02*
G01*
X329945Y9282176D01*
X329945Y9411462D02*
G01*
X228345Y9282176D01*
X483362Y9475978D02*
G01*
X390905Y9346692D01*
X529589Y9346692D01*
X483362Y9475978D02*
G01*
X483362Y9282176D01*
X710437Y9411462D02*
G01*
X701294Y9383776D01*
X682752Y9365234D01*
X655065Y9356089D01*
X645921Y9356089D01*
X618236Y9365234D01*
X599694Y9383776D01*
X590550Y9411462D01*
X590550Y9420605D01*
X599694Y9448292D01*
X618236Y9466834D01*
X645921Y9475978D01*
X655065Y9475978D01*
X682752Y9466834D01*
X701294Y9448292D01*
X710437Y9411462D01*
X710437Y9365234D01*
X701294Y9319005D01*
X682752Y9291320D01*
X655065Y9282176D01*
X636523Y9282176D01*
X608837Y9291320D01*
X599694Y9309862D01*
X93471Y8155178D02*
G01*
X65786Y8146034D01*
X47244Y8118347D01*
X38100Y8072120D01*
X38100Y8044434D01*
X47244Y7998205D01*
X65786Y7970520D01*
X93471Y7961376D01*
X112013Y7961376D01*
X139700Y7970520D01*
X158242Y7998205D01*
X167386Y8044434D01*
X167386Y8072120D01*
X158242Y8118347D01*
X139700Y8146034D01*
X112013Y8155178D01*
X93471Y8155178D01*
X228345Y8090662D02*
G01*
X329945Y7961376D01*
X329945Y8090662D02*
G01*
X228345Y7961376D01*
X483362Y8155178D02*
G01*
X390905Y8025892D01*
X529589Y8025892D01*
X483362Y8155178D02*
G01*
X483362Y7961376D01*
X590550Y8155178D02*
G01*
X590550Y7961376D01*
X590550Y8155178D02*
G01*
X673607Y8155178D01*
X701294Y8146034D01*
X710437Y8136889D01*
X719836Y8118347D01*
X719836Y8099805D01*
X710437Y8081263D01*
X701294Y8072120D01*
X673607Y8062976D01*
X590550Y8062976D02*
G01*
X673607Y8062976D01*
X701294Y8053578D01*
X710437Y8044434D01*
X719836Y8025892D01*
X719836Y7998205D01*
X710437Y7979663D01*
X701294Y7970520D01*
X673607Y7961376D01*
X590550Y7961376D01*
X80771Y7786878D02*
G01*
X53086Y7777734D01*
X34544Y7750047D01*
X25400Y7703820D01*
X25400Y7676134D01*
X34544Y7629905D01*
X53086Y7602220D01*
X80771Y7593076D01*
X99313Y7593076D01*
X127000Y7602220D01*
X145542Y7629905D01*
X154686Y7676134D01*
X154686Y7703820D01*
X145542Y7750047D01*
X127000Y7777734D01*
X99313Y7786878D01*
X80771Y7786878D01*
X215645Y7722362D02*
G01*
X317245Y7593076D01*
X317245Y7722362D02*
G01*
X215645Y7593076D01*
X470662Y7786878D02*
G01*
X378205Y7657592D01*
X516889Y7657592D01*
X470662Y7786878D02*
G01*
X470662Y7593076D01*
X651510Y7786878D02*
G01*
X577850Y7593076D01*
X651510Y7786878D02*
G01*
X725423Y7593076D01*
X605536Y7657592D02*
G01*
X697737Y7657592D01*
X406400Y8539734D02*
G01*
X572770Y8539734D01*
X502157Y9003792D02*
G01*
X502157Y8837676D01*
X419100Y8920734D02*
G01*
X585470Y8920734D01*
X2756154Y7516876D02*
G01*
X2747009Y7525765D01*
X2733293Y7530337D01*
X2715006Y7530337D01*
X2701543Y7525765D01*
X2692400Y7516876D01*
X2692400Y7507731D01*
X2696972Y7498587D01*
X2701543Y7494015D01*
X2710688Y7489444D01*
X2737865Y7480300D01*
X2747009Y7475981D01*
X2751581Y7471410D01*
X2756154Y7462265D01*
X2756154Y7448550D01*
X2747009Y7439405D01*
X2733293Y7434834D01*
X2715006Y7434834D01*
X2701543Y7439405D01*
X2692400Y7448550D01*
X2854197Y7507731D02*
G01*
X2849625Y7516876D01*
X2840481Y7525765D01*
X2831591Y7530337D01*
X2813304Y7530337D01*
X2804159Y7525765D01*
X2795015Y7516876D01*
X2790697Y7507731D01*
X2786125Y7494015D01*
X2786125Y7471410D01*
X2790697Y7457694D01*
X2795015Y7448550D01*
X2804159Y7439405D01*
X2813304Y7434834D01*
X2831591Y7434834D01*
X2840481Y7439405D01*
X2849625Y7448550D01*
X2854197Y7457694D01*
X2884170Y7530337D02*
G01*
X2884170Y7434834D01*
X2884170Y7434834D02*
G01*
X2938779Y7434834D01*
X1778254Y7516876D02*
G01*
X1769110Y7525765D01*
X1755394Y7530337D01*
X1737105Y7530337D01*
X1723644Y7525765D01*
X1714500Y7516876D01*
X1714500Y7507731D01*
X1719071Y7498587D01*
X1723644Y7494015D01*
X1732787Y7489444D01*
X1759965Y7480300D01*
X1769110Y7475981D01*
X1773681Y7471410D01*
X1778254Y7462265D01*
X1778254Y7448550D01*
X1769110Y7439405D01*
X1755394Y7434834D01*
X1737105Y7434834D01*
X1723644Y7439405D01*
X1714500Y7448550D01*
X1876297Y7507731D02*
G01*
X1871726Y7516876D01*
X1862581Y7525765D01*
X1853692Y7530337D01*
X1835404Y7530337D01*
X1826260Y7525765D01*
X1817115Y7516876D01*
X1812797Y7507731D01*
X1808226Y7494015D01*
X1808226Y7471410D01*
X1812797Y7457694D01*
X1817115Y7448550D01*
X1826260Y7439405D01*
X1835404Y7434834D01*
X1853692Y7434834D01*
X1862581Y7439405D01*
X1871726Y7448550D01*
X1876297Y7457694D01*
X1906270Y7530337D02*
G01*
X1906270Y7434834D01*
X1906270Y7434834D02*
G01*
X1960879Y7434834D01*
X2070354Y7516876D02*
G01*
X2061209Y7525765D01*
X2047493Y7530337D01*
X2029206Y7530337D01*
X2015743Y7525765D01*
X2006600Y7516876D01*
X2006600Y7507731D01*
X2011172Y7498587D01*
X2015743Y7494015D01*
X2024888Y7489444D01*
X2052065Y7480300D01*
X2061209Y7475981D01*
X2065781Y7471410D01*
X2070354Y7462265D01*
X2070354Y7448550D01*
X2061209Y7439405D01*
X2047493Y7434834D01*
X2029206Y7434834D01*
X2015743Y7439405D01*
X2006600Y7448550D01*
X2100325Y7530337D02*
G01*
X2100325Y7434834D01*
X2100325Y7530337D02*
G01*
X2132075Y7530337D01*
X2145791Y7525765D01*
X2154681Y7516876D01*
X2159254Y7507731D01*
X2163825Y7494015D01*
X2163825Y7471410D01*
X2159254Y7457694D01*
X2154681Y7448550D01*
X2145791Y7439405D01*
X2132075Y7434834D01*
X2100325Y7434834D01*
X2230120Y7530337D02*
G01*
X2193797Y7434834D01*
X2230120Y7530337D02*
G01*
X2266695Y7434834D01*
X2207513Y7466837D02*
G01*
X2252979Y7466837D01*
D11*
X3619500Y8647684D02*
G01*
X3619500Y8756650D01*
X3619500Y8647684D02*
G01*
X3572763Y8647684D01*
X3557270Y8652763D01*
X3551936Y8658097D01*
X3546856Y8668512D01*
X3546856Y8678926D01*
X3551936Y8689339D01*
X3557270Y8694420D01*
X3572763Y8699500D01*
X3619500Y8699500D01*
X3583177Y8699500D02*
G01*
X3546856Y8756650D01*
X3512565Y8668512D02*
G01*
X3502152Y8663178D01*
X3486404Y8647684D01*
X3486404Y8756650D01*
X3657600Y8152384D02*
G01*
X3657600Y8261350D01*
X3657600Y8152384D02*
G01*
X3610863Y8152384D01*
X3595370Y8157463D01*
X3590036Y8162797D01*
X3584956Y8173212D01*
X3584956Y8183626D01*
X3590036Y8194039D01*
X3595370Y8199120D01*
X3610863Y8204200D01*
X3657600Y8204200D01*
X3621277Y8204200D02*
G01*
X3584956Y8261350D01*
X3545331Y8178292D02*
G01*
X3545331Y8173212D01*
X3540252Y8162797D01*
X3534918Y8157463D01*
X3524504Y8152384D01*
X3503929Y8152384D01*
X3493515Y8157463D01*
X3488181Y8162797D01*
X3483102Y8173212D01*
X3483102Y8183626D01*
X3488181Y8194039D01*
X3498595Y8209534D01*
X3550665Y8261350D01*
X3477768Y8261350D01*
X3670300Y7593584D02*
G01*
X3670300Y7702550D01*
X3670300Y7593584D02*
G01*
X3623563Y7593584D01*
X3608070Y7598663D01*
X3602736Y7603997D01*
X3597656Y7614412D01*
X3597656Y7624826D01*
X3602736Y7635239D01*
X3608070Y7640320D01*
X3623563Y7645400D01*
X3670300Y7645400D01*
X3633977Y7645400D02*
G01*
X3597656Y7702550D01*
X3552952Y7593584D02*
G01*
X3495802Y7593584D01*
X3526790Y7635239D01*
X3511295Y7635239D01*
X3500881Y7640320D01*
X3495802Y7645400D01*
X3490468Y7661147D01*
X3490468Y7671562D01*
X3495802Y7687055D01*
X3506215Y7697470D01*
X3521709Y7702550D01*
X3537204Y7702550D01*
X3552952Y7697470D01*
X3558031Y7692389D01*
X3563365Y7681976D01*
X3619500Y9079484D02*
G01*
X3619500Y9188450D01*
X3619500Y9079484D02*
G01*
X3572763Y9079484D01*
X3557270Y9084563D01*
X3551936Y9089897D01*
X3546856Y9100312D01*
X3546856Y9110726D01*
X3551936Y9121139D01*
X3557270Y9126220D01*
X3572763Y9131300D01*
X3619500Y9131300D01*
X3583177Y9131300D02*
G01*
X3546856Y9188450D01*
X3460495Y9079484D02*
G01*
X3512565Y9152128D01*
X3434588Y9152128D01*
X3460495Y9079484D02*
G01*
X3460495Y9188450D01*
X1904758Y9173667D02*
G01*
X1904758Y9095689D01*
X1909838Y9080195D01*
X1920252Y9069781D01*
X1936000Y9064701D01*
X1946414Y9064701D01*
X1961908Y9069781D01*
X1972322Y9080195D01*
X1977402Y9095689D01*
X1977402Y9173667D01*
X2011692Y9152839D02*
G01*
X2022106Y9158173D01*
X2037854Y9173667D01*
X2037854Y9064701D01*
X532384Y8686800D02*
G01*
X610362Y8686800D01*
X625855Y8691879D01*
X636270Y8702294D01*
X641350Y8718042D01*
X641350Y8728455D01*
X636270Y8743950D01*
X625855Y8754363D01*
X610362Y8759444D01*
X532384Y8759444D01*
X558292Y8799068D02*
G01*
X553212Y8799068D01*
X542797Y8804147D01*
X537463Y8809481D01*
X532384Y8819895D01*
X532384Y8840470D01*
X537463Y8850884D01*
X542797Y8856218D01*
X553212Y8861297D01*
X563626Y8861297D01*
X574039Y8856218D01*
X589534Y8845804D01*
X641350Y8793734D01*
X641350Y8866631D01*
X4191000Y8611615D02*
G01*
X4191000Y8533637D01*
X4196079Y8518144D01*
X4206493Y8507729D01*
X4222241Y8502650D01*
X4232656Y8502650D01*
X4248150Y8507729D01*
X4258563Y8518144D01*
X4263643Y8533637D01*
X4263643Y8611615D01*
X4308347Y8611615D02*
G01*
X4365497Y8611615D01*
X4334509Y8569960D01*
X4350004Y8569960D01*
X4360418Y8564879D01*
X4365497Y8559800D01*
X4370831Y8544052D01*
X4370831Y8533637D01*
X4365497Y8518144D01*
X4355084Y8507729D01*
X4339590Y8502650D01*
X4324095Y8502650D01*
X4308347Y8507729D01*
X4303268Y8512810D01*
X4297934Y8523224D01*
X4191000Y8078215D02*
G01*
X4191000Y8000237D01*
X4196079Y7984744D01*
X4206493Y7974329D01*
X4222241Y7969250D01*
X4232656Y7969250D01*
X4248150Y7974329D01*
X4258563Y7984744D01*
X4263643Y8000237D01*
X4263643Y8078215D01*
X4350004Y8078215D02*
G01*
X4297934Y8005571D01*
X4375911Y8005571D01*
X4350004Y8078215D02*
G01*
X4350004Y7969250D01*
X4191000Y9119615D02*
G01*
X4191000Y9041637D01*
X4196079Y9026144D01*
X4206493Y9015729D01*
X4222241Y9010650D01*
X4232656Y9010650D01*
X4248150Y9015729D01*
X4258563Y9026144D01*
X4263643Y9041637D01*
X4263643Y9119615D01*
X4360418Y9119615D02*
G01*
X4308347Y9119615D01*
X4303268Y9072879D01*
X4308347Y9077960D01*
X4324095Y9083294D01*
X4339590Y9083294D01*
X4355084Y9077960D01*
X4365497Y9067800D01*
X4370831Y9052052D01*
X4370831Y9041637D01*
X4365497Y9026144D01*
X4355084Y9015729D01*
X4339590Y9010650D01*
X4324095Y9010650D01*
X4308347Y9015729D01*
X4303268Y9020810D01*
X4297934Y9031224D01*
X4203700Y9564115D02*
G01*
X4203700Y9486137D01*
X4208779Y9470644D01*
X4219193Y9460229D01*
X4234941Y9455150D01*
X4245356Y9455150D01*
X4260850Y9460229D01*
X4271263Y9470644D01*
X4276343Y9486137D01*
X4276343Y9564115D01*
X4373118Y9548621D02*
G01*
X4367784Y9559036D01*
X4352290Y9564115D01*
X4341875Y9564115D01*
X4326381Y9559036D01*
X4315968Y9543287D01*
X4310634Y9517379D01*
X4310634Y9491471D01*
X4315968Y9470644D01*
X4326381Y9460229D01*
X4341875Y9455150D01*
X4347209Y9455150D01*
X4362704Y9460229D01*
X4373118Y9470644D01*
X4378197Y9486137D01*
X4378197Y9491471D01*
X4373118Y9506965D01*
X4362704Y9517379D01*
X4347209Y9522460D01*
X4341875Y9522460D01*
X4326381Y9517379D01*
X4315968Y9506965D01*
X4310634Y9491471D01*
X1955800Y7963915D02*
G01*
X1955800Y7885937D01*
X1960879Y7870444D01*
X1971293Y7860029D01*
X1987041Y7854950D01*
X1997456Y7854950D01*
X2012950Y7860029D01*
X2023363Y7870444D01*
X2028443Y7885937D01*
X2028443Y7963915D01*
X2135631Y7963915D02*
G01*
X2083561Y7854950D01*
X2062734Y7963915D02*
G01*
X2135631Y7963915D01*
X1016000Y9640315D02*
G01*
X1016000Y9562337D01*
X1021079Y9546844D01*
X1031494Y9536429D01*
X1047242Y9531350D01*
X1057655Y9531350D01*
X1073150Y9536429D01*
X1083563Y9546844D01*
X1088644Y9562337D01*
X1088644Y9640315D01*
X1149095Y9640315D02*
G01*
X1133347Y9635236D01*
X1128268Y9624821D01*
X1128268Y9614408D01*
X1133347Y9603994D01*
X1143762Y9598660D01*
X1164589Y9593579D01*
X1180084Y9588500D01*
X1190497Y9578086D01*
X1195831Y9567671D01*
X1195831Y9551924D01*
X1190497Y9541510D01*
X1185418Y9536429D01*
X1169670Y9531350D01*
X1149095Y9531350D01*
X1133347Y9536429D01*
X1128268Y9541510D01*
X1122934Y9551924D01*
X1122934Y9567671D01*
X1128268Y9578086D01*
X1138681Y9588500D01*
X1154176Y9593579D01*
X1175004Y9598660D01*
X1185418Y9603994D01*
X1190497Y9614408D01*
X1190497Y9624821D01*
X1185418Y9635236D01*
X1169670Y9640315D01*
X1149095Y9640315D01*
X1016000Y10072115D02*
G01*
X1016000Y9994137D01*
X1021079Y9978644D01*
X1031494Y9968229D01*
X1047242Y9963150D01*
X1057655Y9963150D01*
X1073150Y9968229D01*
X1083563Y9978644D01*
X1088644Y9994137D01*
X1088644Y10072115D01*
X1190497Y10035794D02*
G01*
X1185418Y10020300D01*
X1175004Y10009886D01*
X1159510Y10004552D01*
X1154176Y10004552D01*
X1138681Y10009886D01*
X1128268Y10020300D01*
X1122934Y10035794D01*
X1122934Y10040874D01*
X1128268Y10056621D01*
X1138681Y10067036D01*
X1154176Y10072115D01*
X1159510Y10072115D01*
X1175004Y10067036D01*
X1185418Y10056621D01*
X1190497Y10035794D01*
X1190497Y10009886D01*
X1185418Y9983724D01*
X1175004Y9968229D01*
X1159510Y9963150D01*
X1149095Y9963150D01*
X1133347Y9968229D01*
X1128268Y9978644D01*
X1041400Y7976615D02*
G01*
X1041400Y7898637D01*
X1046479Y7883144D01*
X1056894Y7872729D01*
X1072642Y7867650D01*
X1083055Y7867650D01*
X1098550Y7872729D01*
X1108963Y7883144D01*
X1114044Y7898637D01*
X1114044Y7976615D01*
X1148334Y7955787D02*
G01*
X1158747Y7961121D01*
X1174495Y7976615D01*
X1174495Y7867650D01*
X1239773Y7976615D02*
G01*
X1224279Y7971536D01*
X1213865Y7955787D01*
X1208786Y7929879D01*
X1208786Y7914386D01*
X1213865Y7888223D01*
X1224279Y7872729D01*
X1239773Y7867650D01*
X1250187Y7867650D01*
X1265936Y7872729D01*
X1276350Y7888223D01*
X1281429Y7914386D01*
X1281429Y7929879D01*
X1276350Y7955787D01*
X1265936Y7971536D01*
X1250187Y7976615D01*
X1239773Y7976615D01*
X1041400Y8332215D02*
G01*
X1041400Y8254237D01*
X1046479Y8238744D01*
X1056894Y8228329D01*
X1072642Y8223250D01*
X1083055Y8223250D01*
X1098550Y8228329D01*
X1108963Y8238744D01*
X1114044Y8254237D01*
X1114044Y8332215D01*
X1148334Y8311387D02*
G01*
X1158747Y8316721D01*
X1174495Y8332215D01*
X1174495Y8223250D01*
X1208786Y8311387D02*
G01*
X1219200Y8316721D01*
X1234694Y8332215D01*
X1234694Y8223250D01*
X2946400Y7976615D02*
G01*
X2946400Y7898637D01*
X2951479Y7883144D01*
X2961893Y7872729D01*
X2977641Y7867650D01*
X2988056Y7867650D01*
X3003550Y7872729D01*
X3013963Y7883144D01*
X3019043Y7898637D01*
X3019043Y7976615D01*
X3053334Y7955787D02*
G01*
X3063747Y7961121D01*
X3079495Y7976615D01*
X3079495Y7867650D01*
X3118865Y7950708D02*
G01*
X3118865Y7955787D01*
X3124200Y7966202D01*
X3129279Y7971536D01*
X3139693Y7976615D01*
X3160522Y7976615D01*
X3170936Y7971536D01*
X3176015Y7966202D01*
X3181350Y7955787D01*
X3181350Y7945373D01*
X3176015Y7934960D01*
X3165602Y7919465D01*
X3113786Y7867650D01*
X3186429Y7867650D01*
X3576878Y8930660D02*
G01*
X3480991Y8930660D01*
X3480991Y8798539D01*
X3576878Y8798539D01*
X3662121Y8930660D02*
G01*
X3758008Y8930660D01*
X3758008Y8798539D01*
X3662121Y8798539D01*
X3614978Y8435360D02*
G01*
X3519091Y8435360D01*
X3519091Y8303239D01*
X3614978Y8303239D01*
X3700221Y8435360D02*
G01*
X3796108Y8435360D01*
X3796108Y8303239D01*
X3700221Y8303239D01*
X3627678Y7876560D02*
G01*
X3531791Y7876560D01*
X3531791Y7744439D01*
X3627678Y7744439D01*
X3712921Y7876560D02*
G01*
X3808808Y7876560D01*
X3808808Y7744439D01*
X3712921Y7744439D01*
X3576878Y9362460D02*
G01*
X3480991Y9362460D01*
X3480991Y9230339D01*
X3576878Y9230339D01*
X3662121Y9362460D02*
G01*
X3758008Y9362460D01*
X3758008Y9230339D01*
X3662121Y9230339D01*
D12*
X1772551Y8878552D02*
G01*
X2082558Y8878552D01*
X2082558Y8568545D02*
G01*
X2082558Y8878552D01*
X1772551Y8568672D02*
G01*
X2082558Y8568672D01*
X1770138Y8878552D02*
G01*
X1770138Y8794732D01*
X1770138Y8652492D02*
G01*
X1770138Y8568672D01*
D13*
X1444096Y9093200D02*
G01*
X694098Y9093200D01*
X1444096Y8331200D02*
G01*
X694098Y8331200D01*
X1444096Y9093200D02*
G01*
X1444096Y8331200D01*
X694098Y9093200D02*
G01*
X694098Y8331200D01*
X694098Y8460592D02*
G01*
X762000Y8460592D01*
X762000Y8623300D01*
X694098Y8623300D01*
X694098Y8801140D02*
G01*
X762000Y8801140D01*
X762000Y8966200D01*
X694098Y8966200D01*
X888946Y8331200D02*
G01*
X888946Y9093200D01*
X1228217Y8331200D02*
G01*
X1228217Y9093200D01*
X1358900Y8343900D02*
G01*
X1358900Y9093200D01*
D10*
X4457700Y8483600D02*
G01*
X4457700Y8229600D01*
X3949700Y8229600D01*
X3949700Y8483600D01*
X4140200Y8483600D01*
D14*
X4457700Y8483600D02*
G01*
X4140200Y8483600D01*
D10*
X4457700Y7950200D02*
G01*
X4457700Y7696200D01*
X3949700Y7696200D01*
X3949700Y7950200D01*
X4140200Y7950200D01*
D14*
X4457700Y7950200D02*
G01*
X4140200Y7950200D01*
D10*
X4457700Y8991600D02*
G01*
X4457700Y8737600D01*
X3949700Y8737600D01*
X3949700Y8991600D01*
X4140200Y8991600D01*
D14*
X4457700Y8991600D02*
G01*
X4140200Y8991600D01*
D10*
X4470400Y9436100D02*
G01*
X4470400Y9182100D01*
X3962400Y9182100D01*
X3962400Y9436100D01*
X4152900Y9436100D01*
D14*
X4470400Y9436100D02*
G01*
X4152900Y9436100D01*
D10*
X2222500Y7835900D02*
G01*
X2222500Y7581900D01*
X1714500Y7581900D01*
X1714500Y7835900D01*
X1905000Y7835900D01*
D14*
X2222500Y7835900D02*
G01*
X1905000Y7835900D01*
D10*
X1282700Y9512300D02*
G01*
X1282700Y9258300D01*
X774700Y9258300D01*
X774700Y9512300D01*
X965200Y9512300D01*
D14*
X1282700Y9512300D02*
G01*
X965200Y9512300D01*
D10*
X1282700Y9944100D02*
G01*
X1282700Y9690100D01*
X774700Y9690100D01*
X774700Y9944100D01*
X965200Y9944100D01*
D14*
X1282700Y9944100D02*
G01*
X965200Y9944100D01*
D10*
X1308100Y7848600D02*
G01*
X1308100Y7594600D01*
X800100Y7594600D01*
X800100Y7848600D01*
X990600Y7848600D01*
D14*
X1308100Y7848600D02*
G01*
X990600Y7848600D01*
D10*
X1308100Y8204200D02*
G01*
X1308100Y7950200D01*
X800100Y7950200D01*
X800100Y8204200D01*
X990600Y8204200D01*
D14*
X1308100Y8204200D02*
G01*
X990600Y8204200D01*
D10*
X3213100Y7848600D02*
G01*
X3213100Y7594600D01*
X2705100Y7594600D01*
X2705100Y7848600D01*
X2895600Y7848600D01*
D14*
X3213100Y7848600D02*
G01*
X2895600Y7848600D01*
D12*
G75*
G01*
X1770139Y8792192D02*
G02*
X1770139Y8652492I-21730J-69850D01*
D15*
G75*
G01
X1788033Y8526780D02*
G03X1788033Y8526780I-10008J0D01*
M02*
