G04 Layer: BottomLayer*
G04 EasyEDA v6.5.44, 2024-09-12 07:38:51*
G04 Gerber Generator version 0.2*
G04 Scale: 100 percent, Rotated: No, Reflected: No *
G04 Dimensions in millimeters *
G04 leading zeros omitted , absolute positions ,4 integer and 5 decimal *
%FSLAX45Y45*%
%MOMM*%

%ADD10C,0.2540*%
%ADD11C,2.2000*%
%ADD12R,2.0000X2.0000*%
%ADD13C,2.0000*%
%ADD14C,0.6200*%

%LPD*%
D10*
X1054100Y8902700D02*
G01*
X1295400Y8902700D01*
X1651000Y9258300D01*
X1930412Y9258300D01*
X3694836Y9436100D02*
G01*
X2311400Y9436100D01*
X2057400Y9182100D01*
X3694836Y9029700D02*
G01*
X2184400Y9029700D01*
X2108200Y9105900D01*
X3732936Y8559800D02*
G01*
X2336800Y8559800D01*
X2095500Y8318500D01*
X3745636Y8026400D02*
G01*
X2260600Y8026400D01*
X2057400Y8229600D01*
X1841500Y7708900D02*
G01*
X1841500Y7747000D01*
X1968500Y7874000D01*
X2616200Y7874000D01*
X2768600Y7721600D01*
X2832100Y7721600D01*
X1765300Y8089900D02*
G01*
X1193800Y8089900D01*
X1181100Y8077200D01*
X1765300Y8089900D02*
G01*
X1841500Y8013700D01*
X1841500Y7708900D01*
X1790700Y8318500D02*
G01*
X1498600Y8610600D01*
X1054100Y8902700D02*
G01*
X1054100Y9283700D01*
X1155700Y9385300D01*
X1155700Y9817100D02*
G01*
X1155700Y9677400D01*
X1054100Y9575800D01*
X812800Y9575800D01*
X749300Y9512300D01*
X749300Y8826500D01*
X1054100Y8521700D01*
X1054100Y8521700D02*
G01*
X1473200Y8521700D01*
X1612900Y8382000D01*
X1612900Y8242300D01*
X1676400Y8178800D01*
X1930387Y8178800D01*
D11*
G01*
X1054100Y8902700D03*
G01*
X1054100Y8521700D03*
D12*
G01*
X4076700Y8356600D03*
D13*
G01*
X4330700Y8356600D03*
D12*
G01*
X4076700Y7823200D03*
D13*
G01*
X4330700Y7823200D03*
D12*
G01*
X4076700Y8864600D03*
D13*
G01*
X4330700Y8864600D03*
D12*
G01*
X4089400Y9309100D03*
D13*
G01*
X4343400Y9309100D03*
D12*
G01*
X1841500Y7708900D03*
D13*
G01*
X2095500Y7708900D03*
D12*
G01*
X901700Y9385300D03*
D13*
G01*
X1155700Y9385300D03*
D12*
G01*
X901700Y9817100D03*
D13*
G01*
X1155700Y9817100D03*
D12*
G01*
X927100Y7721600D03*
D13*
G01*
X1181100Y7721600D03*
D12*
G01*
X927100Y8077200D03*
D13*
G01*
X1181100Y8077200D03*
D12*
G01*
X2832100Y7721600D03*
D13*
G01*
X3086100Y7721600D03*
D14*
G01*
X2095500Y8318500D03*
G01*
X1790700Y8318500D03*
G01*
X2057400Y8229600D03*
G01*
X1930400Y8178800D03*
G01*
X2108200Y9105900D03*
G01*
X2057400Y9182100D03*
G01*
X1930425Y9258300D03*
G01*
X3694836Y9436100D03*
G01*
X3694836Y9029700D03*
G01*
X3732936Y8559800D03*
G01*
X3745636Y8026400D03*
G01*
X1765300Y8089900D03*
G01*
X1498600Y8610600D03*
M02*
