M48
METRIC,LZ,000.000
;FILE_FORMAT=3:3
;TYPE=PLATED
;Layer: PTH_Through
;EasyEDA v6.5.44, 2024-09-10 11:05:08
;ef8795b4f3bf4754bb9c33a9cda3aba6,10
;Gerber Generator version 0.2
;Holesize 1 = 0.310 mm
T01C0.310
;Holesize 2 = 1.200 mm
T02C1.200
;Holesize 3 = 1.400 mm
T03C1.400
%
G05
G90
T01
X020955Y083185
X017907Y083185
X020574Y082296
X019304Y081788
X021082Y091059
X020574Y091821
X019304Y092583
X036948Y094361
X036948Y090297
X037329Y085598
X037456Y080264
X017653Y080899
X014986Y086106
T02
X040767Y083566
X043307Y083566
X040767Y078232
X043307Y078232
X040767Y088646
X043307Y088646
X040894Y093091
X043434Y093091
X018415Y077089
X020955Y077089
X009017Y093853
X011557Y093853
X009017Y098171
X011557Y098171
X009271Y077216
X011811Y077216
X009271Y080772
X011811Y080772
X028321Y077216
X030861Y077216
T03
X010541Y085217
X010541Y089027
M30
