G04 Layer: TopLayer*
G04 EasyEDA v6.5.44, 2024-09-10 11:05:08*
G04 ef8795b4f3bf4754bb9c33a9cda3aba6,10*
G04 Gerber Generator version 0.2*
G04 Scale: 100 percent, Rotated: No, Reflected: No *
G04 Dimensions in millimeters *
G04 leading zeros omitted , absolute positions ,4 integer and 5 decimal *
%FSLAX45Y45*%
%MOMM*%

%AMMACRO1*21,1,$1,$2,0,0,$3*%
%ADD10C,0.2540*%
%ADD11MACRO1,0.864X0.8065X-90.0000*%
%ADD12R,0.3000X1.3000*%
%ADD13C,2.2000*%
%ADD14R,2.0000X2.0000*%
%ADD15C,2.0000*%
%ADD16C,0.6200*%

%LPD*%
D10*
X901700Y9385300D02*
G01*
X901700Y9334500D01*
X1333500Y8902700D01*
X1397000Y8902700D01*
X1485900Y8813800D01*
X1485900Y8623300D01*
X1498600Y8610600D01*
X901700Y9817100D02*
G01*
X901700Y9385300D01*
X3582263Y8369300D02*
G01*
X2946400Y8369300D01*
X2755900Y8178800D01*
X2209800Y8178800D01*
X2120900Y8089900D01*
X1968500Y8089900D01*
X1943100Y8115300D01*
X1943100Y8166087D01*
X1930387Y8178800D01*
X3544163Y8864600D02*
G01*
X3544163Y9296400D01*
X3582263Y8369300D02*
G01*
X3544163Y8407400D01*
X3544163Y8864600D01*
X3594963Y7810500D02*
G01*
X3582263Y7823200D01*
X3582263Y8369300D01*
X1181100Y7721600D02*
G01*
X1409700Y7721600D01*
X1689100Y8001000D01*
X1498600Y8610600D02*
G01*
X1498600Y8305800D01*
X1460500Y8267700D01*
X1066800Y8267700D01*
X927100Y8128000D01*
X927100Y8077200D01*
X927100Y8077200D02*
G01*
X927100Y7721600D01*
X1830387Y8959900D02*
G01*
X1830387Y9028112D01*
X1765300Y9093200D01*
X1701800Y9093200D01*
X1663700Y9055100D01*
X1663700Y8191500D01*
X1765300Y8089900D01*
X3086100Y7721600D02*
G01*
X3086100Y7937500D01*
X3073400Y7937500D01*
X3048000Y7962900D01*
X2012950Y7962900D01*
X1880400Y8959900D02*
G01*
X1880400Y9105099D01*
X1816100Y9169400D01*
X1663700Y9169400D01*
X1574800Y9080500D01*
X1574800Y8115300D01*
X1689100Y8001000D01*
X1968500Y8001000D01*
X2082800Y7886700D01*
X2082800Y7721600D01*
X2095500Y7708900D01*
X1930400Y9258300D02*
G01*
X2171700Y9499600D01*
X4152900Y9499600D01*
X4343400Y9309100D01*
X4330700Y8356600D02*
G01*
X4330700Y7823200D01*
X4330700Y8864600D02*
G01*
X4330700Y8356600D01*
X4343400Y9309100D02*
G01*
X4343400Y8877300D01*
X4330700Y8864600D01*
X3745636Y7810500D02*
G01*
X3745636Y8026400D01*
X3732936Y8369300D02*
G01*
X3732936Y8559800D01*
X3745636Y7810500D02*
G01*
X3758336Y7823200D01*
X4076700Y7823200D01*
X3732936Y8369300D02*
G01*
X3745636Y8356600D01*
X4076700Y8356600D01*
X3694836Y8864600D02*
G01*
X3694836Y9029700D01*
X3694836Y9296400D02*
G01*
X3694836Y9436100D01*
X3694836Y8864600D02*
G01*
X4076700Y8864600D01*
X1930412Y8959900D02*
G01*
X1930412Y9258300D01*
X1980399Y8959900D02*
G01*
X1980399Y9105099D01*
X2057400Y9182100D01*
X2030387Y8959900D02*
G01*
X2030387Y9028087D01*
X2108200Y9105900D01*
X1930387Y8489899D02*
G01*
X1930387Y8178800D01*
X1980438Y8489950D02*
G01*
X1981200Y8305800D01*
X2057400Y8229600D01*
X1830412Y8489899D02*
G01*
X1830412Y8358212D01*
X1790700Y8318500D01*
X2030412Y8489899D02*
G01*
X2030412Y8383587D01*
X2095500Y8318500D01*
X3694836Y9296400D02*
G01*
X3707536Y9309100D01*
X4089400Y9309100D01*
D11*
G01*
X3544175Y8864600D03*
G01*
X3694824Y8864600D03*
G01*
X3582275Y8369300D03*
G01*
X3732924Y8369300D03*
G01*
X3594975Y7810500D03*
G01*
X3745624Y7810500D03*
G01*
X3544175Y9296400D03*
G01*
X3694824Y9296400D03*
D12*
G01*
X1830412Y8489899D03*
G01*
X1880400Y8489899D03*
G01*
X1930387Y8489899D03*
G01*
X1980399Y8489899D03*
G01*
X2030412Y8489899D03*
G01*
X2030387Y8959900D03*
G01*
X1980399Y8959900D03*
G01*
X1930412Y8959900D03*
G01*
X1880400Y8959900D03*
G01*
X1830387Y8959900D03*
D13*
G01*
X1054100Y8521700D03*
G01*
X1054100Y8902700D03*
D14*
G01*
X4076700Y8356600D03*
D15*
G01*
X4330700Y8356600D03*
D14*
G01*
X4076700Y7823200D03*
D15*
G01*
X4330700Y7823200D03*
D14*
G01*
X4076700Y8864600D03*
D15*
G01*
X4330700Y8864600D03*
D14*
G01*
X4089400Y9309100D03*
D15*
G01*
X4343400Y9309100D03*
D14*
G01*
X1841500Y7708900D03*
D15*
G01*
X2095500Y7708900D03*
D14*
G01*
X901700Y9385300D03*
D15*
G01*
X1155700Y9385300D03*
D14*
G01*
X901700Y9817100D03*
D15*
G01*
X1155700Y9817100D03*
D14*
G01*
X927100Y7721600D03*
D15*
G01*
X1181100Y7721600D03*
D14*
G01*
X927100Y8077200D03*
D15*
G01*
X1181100Y8077200D03*
D14*
G01*
X2832100Y7721600D03*
D15*
G01*
X3086100Y7721600D03*
D16*
G01*
X2095500Y8318500D03*
G01*
X1790700Y8318500D03*
G01*
X2057400Y8229600D03*
G01*
X1930387Y8178800D03*
G01*
X2108200Y9105900D03*
G01*
X2057400Y9182100D03*
G01*
X1930412Y9258300D03*
G01*
X3694836Y9436100D03*
G01*
X3694836Y9029700D03*
G01*
X3732936Y8559800D03*
G01*
X3745636Y8026400D03*
G01*
X1765300Y8089900D03*
G01*
X1498600Y8610600D03*
M02*
