G04 Layer: TopPasteMaskLayer*
G04 EasyEDA v6.5.44, 2024-09-10 11:05:08*
G04 ef8795b4f3bf4754bb9c33a9cda3aba6,10*
G04 Gerber Generator version 0.2*
G04 Scale: 100 percent, Rotated: No, Reflected: No *
G04 Dimensions in millimeters *
G04 leading zeros omitted , absolute positions ,4 integer and 5 decimal *
%FSLAX45Y45*%
%MOMM*%

%ADD10R,0.3000X1.3000*%

%LPD*%
G36*
X3500018Y8909608D02*
G01*
X3494989Y8904579D01*
X3494989Y8824620D01*
X3500018Y8819591D01*
X3579977Y8819591D01*
X3585006Y8824620D01*
X3585006Y8847378D01*
X3548024Y8847378D01*
X3548024Y8880398D01*
X3585006Y8880398D01*
X3585006Y8904579D01*
X3579977Y8909608D01*
G37*
G36*
X3659022Y8909608D02*
G01*
X3653993Y8904579D01*
X3653993Y8881821D01*
X3690975Y8881821D01*
X3690975Y8848801D01*
X3653993Y8848801D01*
X3653993Y8824620D01*
X3659022Y8819591D01*
X3738981Y8819591D01*
X3744010Y8824620D01*
X3744010Y8904579D01*
X3738981Y8909608D01*
G37*
G36*
X3538118Y8414308D02*
G01*
X3533089Y8409279D01*
X3533089Y8329320D01*
X3538118Y8324291D01*
X3618077Y8324291D01*
X3623106Y8329320D01*
X3623106Y8352078D01*
X3586124Y8352078D01*
X3586124Y8385098D01*
X3623106Y8385098D01*
X3623106Y8409279D01*
X3618077Y8414308D01*
G37*
G36*
X3697122Y8414308D02*
G01*
X3692093Y8409279D01*
X3692093Y8386521D01*
X3729075Y8386521D01*
X3729075Y8353501D01*
X3692093Y8353501D01*
X3692093Y8329320D01*
X3697122Y8324291D01*
X3777081Y8324291D01*
X3782110Y8329320D01*
X3782110Y8409279D01*
X3777081Y8414308D01*
G37*
G36*
X3550818Y7855508D02*
G01*
X3545789Y7850479D01*
X3545789Y7770520D01*
X3550818Y7765491D01*
X3630777Y7765491D01*
X3635806Y7770520D01*
X3635806Y7793278D01*
X3598824Y7793278D01*
X3598824Y7826298D01*
X3635806Y7826298D01*
X3635806Y7850479D01*
X3630777Y7855508D01*
G37*
G36*
X3709822Y7855508D02*
G01*
X3704793Y7850479D01*
X3704793Y7827721D01*
X3741775Y7827721D01*
X3741775Y7794701D01*
X3704793Y7794701D01*
X3704793Y7770520D01*
X3709822Y7765491D01*
X3789781Y7765491D01*
X3794810Y7770520D01*
X3794810Y7850479D01*
X3789781Y7855508D01*
G37*
G36*
X3500018Y9341408D02*
G01*
X3494989Y9336379D01*
X3494989Y9256420D01*
X3500018Y9251391D01*
X3579977Y9251391D01*
X3585006Y9256420D01*
X3585006Y9279178D01*
X3548024Y9279178D01*
X3548024Y9312198D01*
X3585006Y9312198D01*
X3585006Y9336379D01*
X3579977Y9341408D01*
G37*
G36*
X3659022Y9341408D02*
G01*
X3653993Y9336379D01*
X3653993Y9313621D01*
X3690975Y9313621D01*
X3690975Y9280601D01*
X3653993Y9280601D01*
X3653993Y9256420D01*
X3659022Y9251391D01*
X3738981Y9251391D01*
X3744010Y9256420D01*
X3744010Y9336379D01*
X3738981Y9341408D01*
G37*
D10*
G01*
X1830412Y8489899D03*
G01*
X1880400Y8489899D03*
G01*
X1930387Y8489899D03*
G01*
X1980399Y8489899D03*
G01*
X2030412Y8489899D03*
G01*
X2030387Y8959900D03*
G01*
X1980399Y8959900D03*
G01*
X1930412Y8959900D03*
G01*
X1880400Y8959900D03*
G01*
X1830387Y8959900D03*
M02*
